<svg xmlns="http://www.w3.org/2000/svg" version="1.1" xmlns:xlink="http://www.w3.org/1999/xlink" xmlns:svgjs="http://svgjs.dev/svgjs" width="1000" height="1000" viewBox="0 0 1000 1000"><rect width="1000" height="1000" fill="#000000"></rect><g transform="matrix(0.7,0,0,0.7,149.90044910179654,149.90044910179637)"><svg viewBox="0 0 334 334" data-background-color="#ffffff" preserveAspectRatio="xMidYMid meet" height="1000" width="1000" xmlns="http://www.w3.org/2000/svg" xmlns:xlink="http://www.w3.org/1999/xlink"><g id="tight-bounds" transform="matrix(1,0,0,1,0.04749999999998522,0.04750000000001364)"><svg viewBox="0 0 333.90454557049503 333.90454557049503" height="333.90454557049503" width="333.90454557049503"><g><svg></svg></g><g><svg viewBox="0 0 333.90454557049503 333.90454557049503" height="333.90454557049503" width="333.90454557049503"><g><path d="M0 166.952c0-92.205 74.747-166.952 166.952-166.952 92.205 0 166.952 74.747 166.953 166.952 0 92.205-74.747 166.952-166.953 166.953-92.205 0-166.952-74.747-166.952-166.953zM166.952 330.77c90.474 0 163.818-73.344 163.818-163.818 0-90.474-73.344-163.818-163.818-163.817-90.474 0-163.818 73.344-163.817 163.817 0 90.474 73.344 163.818 163.817 163.818z" data-fill-palette-color="tertiary" fill="#ffffff" stroke="transparent"></path><ellipse rx="160.27418187383762" ry="160.27418187383762" cx="166.95227278524752" cy="166.95227278524752" fill="#ffffff" stroke="transparent" stroke-width="0" fill-opacity="1" data-fill-palette-color="tertiary"></ellipse></g><g transform="matrix(1,0,0,1,78.61000693144933,71.17305217166896)"><svg viewBox="0 0 176.68453170759636 191.55844122715712" height="191.55844122715712" width="176.68453170759636"><g><svg viewBox="0 0 190.3746100603733 206.40099730261264" height="191.55844122715712" width="176.68453170759636"><g><svg viewBox="0 0 190.3746100603733 206.40099730261264" height="206.40099730261264" width="190.3746100603733"><g id="textblocktransform"><svg viewBox="0 0 190.3746100603733 206.40099730261264" height="206.40099730261264" width="190.3746100603733" id="textblock"><g><svg viewBox="0 0 190.3746100603733 190.3746100603733" height="190.3746100603733" width="190.3746100603733"><g transform="matrix(1,0,0,1,66.28617103641696,61.533510595327975)"><svg viewBox="0 0 57.802267987539366 67.30758886971735" height="67.30758886971735" width="57.802267987539366"><g><svg xmlns="http://www.w3.org/2000/svg" xmlns:xlink="http://www.w3.org/1999/xlink" version="1.1" x="0" y="0" viewBox="11.350000381469727 4.999999523162842 77.29000854492188 90" style="enable-background:new 0 0 100 100;" xml:space="preserve" height="67.30758886971735" width="57.802267987539366" class="icon-o-0" data-fill-palette-color="quaternary" id="o-0"><path d="M77.41 95h8.72c1.38 0 2.51-1.13 2.51-2.51V66.21c0-1.38-1.12-2.51-2.51-2.51H62.98v5.02h20.64v21.26h-3.7v-5.06c0-1.38-1.12-2.51-2.51-2.51H66.98c-1.38 0-2.51 1.12-2.51 2.51v5.06h-3.93V52.46c0-2.93-2.38-5.31-5.31-5.31H16.66c-2.92 0-5.31 2.39-5.31 5.31v26.15h5.36l-0.06-26.1 38.89-0.08 0.03 38.98-0.03 1.08c0 0.06 0.03 0.12 0.04 0.18l0 0.36h0.07c0.1 0.46 0.29 0.9 0.63 1.24 0.47 0.46 1.11 0.72 1.77 0.72h8.92c1.38 0 2.51-1.13 2.51-2.51v-5.05h5.42v5.05C74.91 93.87 76.03 95 77.41 95z" fill="#000000" data-fill-palette-color="quaternary"></path><path d="M82.68 61.31V10.32c0-2.93-2.38-5.32-5.31-5.32H38.8c-2.93 0-5.31 2.39-5.31 5.32l0.1 35.07h5.36L38.8 10.37l38.51-0.05v50.99H82.68z" fill="#000000" data-fill-palette-color="quaternary"></path><rect x="42.26" y="16.15" width="7.7" height="4.53" fill="#000000" data-fill-palette-color="quaternary"></rect><rect x="54.23" y="16.15" width="7.7" height="4.53" fill="#000000" data-fill-palette-color="quaternary"></rect><rect x="66.21" y="16.15" width="7.7" height="4.53" fill="#000000" data-fill-palette-color="quaternary"></rect><rect x="42.26" y="25.02" width="7.7" height="4.54" fill="#000000" data-fill-palette-color="quaternary"></rect><rect x="54.23" y="25.02" width="7.7" height="4.54" fill="#000000" data-fill-palette-color="quaternary"></rect><rect x="66.21" y="25.02" width="7.7" height="4.54" fill="#000000" data-fill-palette-color="quaternary"></rect><rect x="42.26" y="33.89" width="7.7" height="4.53" fill="#000000" data-fill-palette-color="quaternary"></rect><rect x="54.23" y="33.89" width="7.7" height="4.53" fill="#000000" data-fill-palette-color="quaternary"></rect><rect x="66.21" y="33.89" width="7.7" height="4.53" fill="#000000" data-fill-palette-color="quaternary"></rect><rect x="20.12" y="56.98" width="7.7" height="4.53" fill="#000000" data-fill-palette-color="quaternary"></rect><rect x="32.09" y="56.98" width="7.7" height="4.53" fill="#000000" data-fill-palette-color="quaternary"></rect><rect x="44.07" y="56.98" width="7.7" height="4.53" fill="#000000" data-fill-palette-color="quaternary"></rect><rect x="20.12" y="65.84" width="7.7" height="4.54" fill="#000000" data-fill-palette-color="quaternary"></rect><rect x="32.09" y="65.84" width="7.7" height="4.54" fill="#000000" data-fill-palette-color="quaternary"></rect><rect x="44.07" y="65.84" width="7.7" height="4.54" fill="#000000" data-fill-palette-color="quaternary"></rect><rect x="20.12" y="74.72" width="7.7" height="4.53" fill="#000000" data-fill-palette-color="quaternary"></rect><rect x="32.09" y="74.72" width="7.7" height="4.53" fill="#000000" data-fill-palette-color="quaternary"></rect><rect x="44.07" y="74.72" width="7.7" height="4.53" fill="#000000" data-fill-palette-color="quaternary"></rect></svg></g></svg></g><g><path d="M4.38 62.994c0.211-0.618 0.542-1.302 0.992-2.054 0.451-0.751 0.836-1.281 1.156-1.588v0l3.388 1.156-0.293 0.859c-2.117 0.413-3.463 1.462-4.038 3.148v0c-0.25 0.734-0.259 1.474-0.026 2.223 0.227 0.746 0.664 1.423 1.311 2.031 0.647 0.609 1.444 1.075 2.39 1.398v0c1.1 0.376 2.158 0.55 3.173 0.523 1.015-0.027 1.913-0.299 2.692-0.816 0.784-0.508 1.352-1.277 1.704-2.307v0c0.338-0.991 0.121-2.639-0.651-4.943v0l1.066-0.25 1.364 3.99c0.007 0.484-0.034 0.941-0.122 1.37-0.096 0.427-0.224 0.876-0.384 1.345v0c-0.413 1.21-1.069 2.186-1.969 2.928-0.908 0.746-1.96 1.206-3.155 1.38-1.199 0.166-2.451 0.025-3.758-0.421v0c-1.332-0.455-2.434-1.269-3.305-2.442-0.862-1.178-1.423-2.462-1.681-3.851-0.265-1.391-0.217-2.617 0.146-3.679z" fill="#000000" data-fill-palette-color="quaternary"></path><path d="M27.57 50.078l-0.806 0.748-5.462 9.507-0.566-0.325-0.31-2.143-9.374-5.385-1.504 1.347-0.504-0.76 5.279-9.189 0.24-1.073 3.688 2.119-0.129 0.655-3.877 0.278-2.429 4.227 4.838 2.779 1.346-2.343-1.308-2.269 0.325-0.566 4.732 2.718-0.053 0.911-2.886-0.341-1.351 2.353 5.094 2.926 2.383-4.147-1.908-3.908 0.518-0.431z" fill="#000000" data-fill-palette-color="quaternary"></path><path d="M28.961 27.232l-0.125 2.182 9.129 8.121-0.739 0.831-13.642-0.656 6.629 5.899 2.051-0.893 0.345 0.839-2.949 3.315-0.488-0.434 0.134-2.16-7.765-6.909-2.044 0.748-0.339-0.847 1.878-2.111 13.309 0.646-6.439-5.728-2.043 0.885-0.339-0.847 2.949-3.315z" fill="#000000" data-fill-palette-color="quaternary"></path><path d="M42.868 15.083l2.783 3.688-0.376 0.552-4.117-1.391-1.677 1.266 7.158 9.484 1.899-0.666 0.174 0.891-4.535 3.422-0.393-0.521 0.555-2.093-6.82-9.037-1.636 1.235 0.208 4.341-0.633 0.209-2.783-3.688 1.035-0.372 8.516-6.426z" fill="#000000" data-fill-palette-color="quaternary"></path><path d="M66.688 18.497l-0.028 0.917-3.143 1.489-6.237-4.11-1.023-0.181 0.015-0.684 0.884-0.419c0.719-0.341 1.195-0.796 1.43-1.366 0.231-0.561 0.192-1.167-0.117-1.818v0c-0.405-0.854-0.967-1.445-1.687-1.774-0.729-0.332-1.539-0.286-2.43 0.136v0c-0.578 0.274-1.034 0.708-1.369 1.303v0l4.77 10.065 2.004-0.25-0.01 0.908-5.134 2.433-0.28-0.59 0.967-1.937-4.639-9.788-1.986 0.286 0.019-0.912 2.065-0.978c0.995-0.472 1.944-0.963 2.846-1.473v0c0.68-0.375 1.183-0.64 1.509-0.794v0c0.756-0.358 1.495-0.528 2.219-0.51 0.73 0.015 1.378 0.201 1.945 0.557 0.558 0.352 0.98 0.83 1.266 1.431v0c0.253 0.535 0.331 1.126 0.231 1.776-0.102 0.643-0.337 1.281-0.706 1.915-0.372 0.628-0.816 1.184-1.331 1.669v0l1.276-0.165 4.352 2.87z" fill="#000000" data-fill-palette-color="quaternary"></path><path d="M73.433 2.569c1.26-0.316 2.453-0.296 3.579 0.059 1.12 0.357 2.079 0.993 2.877 1.907 0.799 0.921 1.366 2.048 1.699 3.38v0c0.344 1.372 0.256 2.74-0.263 4.104-0.515 1.356-1.288 2.521-2.32 3.495-1.032 0.974-2.091 1.597-3.18 1.87v0c-1.253 0.314-2.438 0.3-3.555-0.044-1.125-0.349-2.086-0.98-2.883-1.894-0.792-0.923-1.357-2.054-1.693-3.393v0c-0.343-1.365-0.258-2.732 0.254-4.102 0.52-1.364 1.292-2.533 2.318-3.504 1.023-0.979 2.079-1.605 3.167-1.878zM72.811 4.407c-0.752 0.189-1.378 0.584-1.879 1.187-0.502 0.596-0.833 1.331-0.992 2.205-0.159 0.874-0.117 1.796 0.126 2.765v0c0.285 1.134 0.719 2.126 1.303 2.975 0.585 0.849 1.311 1.466 2.179 1.851 0.866 0.379 1.833 0.434 2.901 0.166v0c0.745-0.187 1.368-0.582 1.87-1.184 0.509-0.597 0.843-1.333 1.002-2.208 0.159-0.874 0.117-1.796-0.126-2.765v0c-0.288-1.148-0.724-2.146-1.309-2.995-0.591-0.847-1.319-1.457-2.183-1.828-0.866-0.379-1.83-0.435-2.892-0.169z" fill="#000000" data-fill-palette-color="quaternary"></path><path d="M94.256 0.005c0.652-0.025 1.41 0.038 2.273 0.188 0.863 0.15 1.496 0.32 1.897 0.509v0l0.138 3.578-0.907 0.034c-1.145-1.827-2.608-2.706-4.388-2.637v0c-0.775 0.03-1.469 0.288-2.083 0.774-0.614 0.48-1.089 1.131-1.426 1.953-0.336 0.823-0.484 1.733-0.446 2.732v0c0.045 1.162 0.262 2.212 0.652 3.15 0.39 0.938 0.966 1.678 1.729 2.219 0.756 0.549 1.678 0.803 2.765 0.762v0c1.046-0.04 2.506-0.835 4.379-2.384v0l0.617 0.905-3.234 2.707c-0.449 0.181-0.89 0.306-1.322 0.378-0.433 0.064-0.898 0.106-1.394 0.125v0c-1.277 0.049-2.424-0.213-3.439-0.786-1.023-0.58-1.83-1.396-2.422-2.449-0.585-1.059-0.904-2.279-0.957-3.658v0c-0.054-1.406 0.31-2.727 1.092-3.961 0.79-1.228 1.786-2.212 2.99-2.953 1.203-0.747 2.365-1.142 3.486-1.186z" fill="#000000" data-fill-palette-color="quaternary"></path><path d="M118.127 16.683l-0.533 0.735-5.595-0.983 0.113-0.643 1.908-1.021 0.801-4.561-6.851-1.203-0.894 5.093 1.779 0.955-0.533 0.734-5.595-0.982 0.112-0.643 1.909-1.022 1.867-10.628-1.783-0.934 0.543-0.733 5.606 0.984-0.113 0.643-1.933 1.038-0.808 4.601 6.851 1.203 0.909-5.173-1.783-0.935 0.543-0.733 5.606 0.985-0.113 0.642-1.932 1.038-1.864 10.609z" fill="#000000" data-fill-palette-color="quaternary"></path><path d="M134.736 23.558l-0.684 0.597-5.31-2.238 0.254-0.602 2.134-0.495 0.021-3.489-5.536-2.333-2.513 2.416 2.423 2.261-0.702 0.589-5.132-2.163 0.254-0.601 2.143-0.569 9.154-8.77 2.334-0.024-0.105 13.747zM131.167 16.32l0.038-6.681-4.84 4.657z" fill="#000000" data-fill-palette-color="quaternary"></path><path d="M151.173 35.056l-0.797 0.436-4.634-3.286 0.377-0.533 2.162-0.105 5.634-7.946-10.67 6.814-0.915-0.649 2.992-12.42-5.852 8.254 1.027 1.867-0.796 0.435-3.528-2.501 0.378-0.532 2.162-0.105 6.052-8.537-0.998-1.908 0.805-0.43 3.403 2.413-2.799 11.619 10.03-6.493 3.577 2.537-0.377 0.532-2.179 0.093-6.253 8.82z" fill="#000000" data-fill-palette-color="quaternary"></path><path d="M164.709 39.651c0.4 0.858 0.541 1.693 0.424 2.505-0.123 0.817-0.484 1.497-1.084 2.04v0c-0.56 0.506-1.297 0.756-2.211 0.749-0.914-0.017-1.83-0.234-2.748-0.651-0.913-0.412-1.651-0.927-2.212-1.547v0c-0.406-0.449-0.78-0.908-1.122-1.378v0c-0.602-0.757-1.082-1.332-1.438-1.725v0l-1.601-1.77 0.484-0.438 2.134 0.367 8.047-7.281-0.848-1.819 0.879-0.245 1.458 1.611c0.739 0.817 1.492 1.593 2.259 2.33v0c0.587 0.578 1.011 1.011 1.271 1.298v0c0.547 0.605 0.917 1.247 1.109 1.926 0.183 0.678 0.191 1.321 0.027 1.929-0.166 0.618-0.496 1.15-0.99 1.597v0c-0.449 0.406-1.012 0.645-1.689 0.717-0.687 0.072-1.401-0.003-2.141-0.222v0zM166.103 37.771c0.691-0.625 1.091-1.317 1.202-2.078 0.11-0.76-0.154-1.493-0.793-2.198v0c-0.443-0.489-0.994-0.82-1.655-0.993v0l-3.547 3.209 1.663 1.838c0.479 0.529 0.992 0.817 1.538 0.864 0.542 0.042 1.073-0.173 1.592-0.642zM158.272 42.174c0.557 0.615 1.155 0.963 1.796 1.043 0.641 0.08 1.226-0.119 1.756-0.598v0c0.681-0.616 1.052-1.31 1.115-2.082 0.068-0.776-0.235-1.562-0.907-2.356v0c-0.065-0.051-0.145-0.13-0.241-0.236v0l-1.328-1.467-3.691 3.339c0.298 0.776 0.803 1.557 1.515 2.343v0z" fill="#000000" data-fill-palette-color="quaternary"></path><path d="M168.74 60.093l-0.27-1.066-5.722-9.353 0.557-0.341 2.028 0.756 9.223-5.643-0.462-1.965 0.909-0.078 5.531 9.039 0.827 0.726-3.628 2.22-0.513-0.428 1.615-3.535-2.544-4.159-4.759 2.912 1.411 2.306 2.618-0.06 0.34 0.557-4.654 2.848-0.774-0.483 1.683-2.369-1.416-2.315-5.011 3.067 2.496 4.08 4.344 0.2 0.13 0.662z" fill="#000000" data-fill-palette-color="quaternary"></path><path d="M176.014 76.135l-0.91-0.116-1.18-3.272 4.692-5.812 0.279-1 0.679 0.08 0.332 0.921c0.27 0.748 0.677 1.267 1.222 1.554 0.536 0.284 1.143 0.303 1.821 0.059v0c0.889-0.321 1.532-0.823 1.929-1.508 0.4-0.694 0.433-1.504 0.098-2.432v0c-0.217-0.601-0.605-1.097-1.165-1.488v0l-10.477 3.778 0.055 2.018-0.902-0.097-1.927-5.344 0.614-0.222 1.834 1.149 10.19-3.674-0.094-2.004 0.906 0.107 0.775 2.149c0.374 1.036 0.771 2.028 1.192 2.975v0c0.308 0.713 0.523 1.239 0.645 1.578v0c0.284 0.787 0.382 1.539 0.293 2.257-0.086 0.725-0.333 1.352-0.741 1.883-0.405 0.522-0.92 0.896-1.547 1.122v0c-0.556 0.201-1.153 0.221-1.789 0.06-0.63-0.163-1.243-0.459-1.838-0.888-0.589-0.431-1.1-0.926-1.533-1.486v0l0.041 1.287-3.276 4.054z" fill="#000000" data-fill-palette-color="quaternary"></path><path d="M22.84 125.675c0.211 0.618 0.368 1.362 0.471 2.231 0.103 0.87 0.122 1.525 0.056 1.964v0l-3.388 1.157-0.294-0.859c1.423-1.621 1.846-3.274 1.271-4.96v0c-0.25-0.734-0.697-1.325-1.339-1.774-0.635-0.451-1.395-0.72-2.279-0.806-0.884-0.086-1.8 0.032-2.746 0.355v0c-1.1 0.376-2.044 0.885-2.83 1.527-0.787 0.642-1.331 1.406-1.632 2.292-0.31 0.882-0.289 1.837 0.063 2.867v0c0.338 0.991 1.518 2.162 3.537 3.512v0l-0.69 0.85-3.52-2.322c-0.302-0.378-0.548-0.765-0.74-1.159-0.186-0.396-0.359-0.83-0.519-1.3v0c-0.413-1.21-0.49-2.383-0.232-3.52 0.263-1.146 0.813-2.153 1.652-3.021 0.847-0.864 1.924-1.519 3.231-1.965v0c1.332-0.455 2.702-0.484 4.108-0.088 1.403 0.405 2.631 1.078 3.685 2.018 1.06 0.938 1.772 1.939 2.135 3.001z" fill="#000000" data-fill-palette-color="quaternary"></path><path d="M18.571 150.063l-0.24-1.074-5.462-9.507 0.566-0.325 2.007 0.811 9.375-5.386-0.407-1.977 0.91-0.053 5.279 9.189 0.807 0.748-3.688 2.119-0.501-0.442 1.713-3.489-2.429-4.227-4.838 2.779 1.347 2.343 2.619 0.013 0.325 0.566-4.732 2.719-0.76-0.505 1.748-2.321-1.351-2.353-5.094 2.927 2.383 4.147 4.336 0.321 0.111 0.665z" fill="#000000" data-fill-palette-color="quaternary"></path><path d="M42.01 156.129l-2.152-0.379-9.129 8.122-0.739-0.83 2.239-13.473-6.63 5.898 0.648 2.14-0.874 0.245-2.949-3.314 0.488-0.434 2.13 0.384 7.765-6.908-0.505-2.118 0.881-0.237 1.878 2.111-2.191 13.143 6.439-5.729-0.641-2.132 0.881-0.238 2.949 3.315z" fill="#000000" data-fill-palette-color="quaternary"></path><path d="M54.568 164.382l-2.783 3.688-0.634-0.21 0.209-4.34-1.677-1.266-7.158 9.485 1.162 1.643-0.809 0.412-4.535-3.422 0.394-0.521 2.164-0.041 6.82-9.036-1.637-1.235-4.116 1.391-0.376-0.552 2.783-3.688 0.642 0.893 8.516 6.427z" fill="#000000" data-fill-palette-color="quaternary"></path><path d="M63.257 183.713l-0.728 0.558-3.143-1.489-0.767-7.43-0.508-0.906 0.539-0.422 0.885 0.419c0.719 0.341 1.373 0.421 1.962 0.242 0.58-0.176 1.025-0.59 1.333-1.242v0c0.405-0.854 0.506-1.664 0.305-2.429-0.205-0.774-0.753-1.373-1.644-1.795v0c-0.578-0.274-1.203-0.352-1.875-0.234v0l-4.77 10.065 1.462 1.392-0.709 0.567-5.134-2.433 0.28-0.59 2.111-0.477 4.639-9.789-1.479-1.355 0.718-0.563 2.064 0.978c0.995 0.472 1.976 0.895 2.942 1.271v0c0.721 0.289 1.244 0.511 1.57 0.665v0c0.756 0.358 1.356 0.823 1.8 1.394 0.45 0.574 0.717 1.194 0.801 1.858 0.081 0.655-0.022 1.284-0.307 1.887v0c-0.253 0.535-0.662 0.969-1.227 1.303-0.562 0.328-1.205 0.55-1.93 0.666-0.722 0.109-1.433 0.118-2.134 0.026v0l0.935 0.884 0.534 5.185z" fill="#000000" data-fill-palette-color="quaternary"></path><path d="M78.18 173.482c1.26 0.316 2.302 0.897 3.128 1.742 0.819 0.843 1.364 1.856 1.635 3.039 0.269 1.189 0.237 2.45-0.098 3.782v0c-0.344 1.372-1.067 2.536-2.169 3.493-1.094 0.952-2.326 1.614-3.695 1.986-1.369 0.372-2.598 0.421-3.686 0.148v0c-1.253-0.314-2.291-0.887-3.113-1.717-0.827-0.838-1.376-1.849-1.648-3.032-0.263-1.188-0.226-2.451 0.11-3.789v0c0.343-1.365 1.063-2.531 2.16-3.496 1.102-0.957 2.335-1.622 3.697-1.996 1.364-0.38 2.59-0.433 3.679-0.16zM76.764 174.809c-0.752-0.189-1.491-0.136-2.217 0.159-0.724 0.288-1.363 0.78-1.916 1.475-0.553 0.695-0.951 1.528-1.194 2.498v0c-0.285 1.134-0.37 2.214-0.255 3.238 0.115 1.024 0.463 1.911 1.046 2.66 0.585 0.743 1.411 1.248 2.48 1.516v0c0.745 0.187 1.481 0.133 2.207-0.162 0.731-0.286 1.373-0.777 1.926-1.472 0.553-0.695 0.951-1.528 1.194-2.498v0c0.288-1.148 0.375-2.233 0.26-3.258-0.121-1.026-0.475-1.907-1.061-2.642-0.585-0.743-1.408-1.247-2.47-1.514z" fill="#000000" data-fill-palette-color="quaternary"></path><path d="M95.006 175.473c0.652 0.025 1.403 0.146 2.252 0.363 0.849 0.216 1.467 0.434 1.853 0.653v0l-0.138 3.577-0.907-0.035c-1.002-1.91-2.392-2.899-4.172-2.967v0c-0.775-0.03-1.487 0.174-2.137 0.611-0.649 0.431-1.173 1.044-1.571 1.838-0.398 0.794-0.616 1.691-0.655 2.69v0c-0.045 1.162 0.091 2.225 0.408 3.19 0.317 0.965 0.834 1.747 1.553 2.347 0.712 0.606 1.611 0.93 2.698 0.971v0c1.046 0.04 2.563-0.64 4.549-2.04v0l0.546 0.95-3.432 2.45c-0.462 0.146-0.911 0.237-1.348 0.275-0.437 0.031-0.903 0.037-1.399 0.018v0c-1.277-0.049-2.4-0.399-3.369-1.049-0.975-0.657-1.717-1.533-2.226-2.627-0.502-1.101-0.726-2.342-0.673-3.721v0c0.054-1.406 0.519-2.695 1.394-3.866 0.882-1.164 1.951-2.068 3.207-2.714 1.257-0.652 2.446-0.957 3.567-0.914z" fill="#000000" data-fill-palette-color="quaternary"></path><path d="M119.513 186.179l-0.251 0.872-5.595 0.983-0.113-0.643 1.447-1.611-0.801-4.56-6.852 1.203 0.895 5.093 1.998 0.291-0.251 0.873-5.595 0.982-0.113-0.643 1.446-1.61-1.866-10.629-1.995-0.271 0.261-0.874 5.605-0.984 0.113 0.643-1.463 1.634 0.808 4.601 6.852-1.204-0.909-5.173-1.995-0.271 0.261-0.874 5.606-0.985 0.113 0.643-1.464 1.634 1.864 10.609z" fill="#000000" data-fill-palette-color="quaternary"></path><path d="M137.864 178.833l-0.05 0.907-5.31 2.238-0.254-0.601 1.136-1.874-2.483-2.451-5.535 2.334-0.025 3.486 3.31-0.156-0.068 0.914-5.132 2.163-0.254-0.601 1.09-1.932 0.113-12.677 1.613-1.687 9.768 9.674zM130.191 176.334l-4.756-4.692-0.047 6.716z" fill="#000000" data-fill-palette-color="quaternary"></path><path d="M155.854 166.517l0.147 0.896-4.635 3.285-0.377-0.532 0.617-2.075-5.634-7.946 2.898 12.323-0.915 0.649-10.729-6.934 5.851 8.254 2.101-0.352 0.148 0.896-3.528 2.501-0.378-0.532 0.617-2.075-6.052-8.537-2.131 0.31-0.139-0.902 3.403-2.412 10.038 6.486-2.807-11.612 3.578-2.537 0.377 0.533-0.633 2.086 6.253 8.82z" fill="#000000" data-fill-palette-color="quaternary"></path><path d="M160.501 151.512c0.813-0.484 1.63-0.707 2.45-0.671 0.825 0.041 1.538 0.332 2.138 0.875v0c0.56 0.506 0.882 1.215 0.966 2.125 0.074 0.911-0.05 1.844-0.373 2.799-0.318 0.95-0.758 1.735-1.319 2.355v0c-0.406 0.449-0.826 0.867-1.259 1.254v0c-0.693 0.675-1.218 1.209-1.574 1.603v0l-1.601 1.769-0.484-0.438 0.152-2.159-8.047-7.281-1.725 1.025-0.332-0.85 1.458-1.611c0.739-0.817 1.437-1.644 2.093-2.48v0c0.517-0.642 0.905-1.107 1.165-1.394v0c0.547-0.605 1.149-1.037 1.805-1.297 0.657-0.249 1.296-0.322 1.917-0.218 0.631 0.103 1.194 0.378 1.688 0.825v0c0.449 0.406 0.743 0.943 0.882 1.61 0.14 0.677 0.137 1.394-0.008 2.152v0zM158.491 150.313c-0.691-0.625-1.42-0.954-2.187-0.989-0.767-0.034-1.47 0.302-2.109 1.008v0c-0.443 0.489-0.717 1.071-0.822 1.746v0l3.547 3.209 1.663-1.838c0.479-0.529 0.714-1.068 0.706-1.617-0.013-0.543-0.279-1.05-0.798-1.519zM163.653 157.665c0.557-0.615 0.843-1.246 0.859-1.891 0.016-0.646-0.241-1.208-0.77-1.687v0c-0.681-0.616-1.408-0.916-2.183-0.902-0.779 0.01-1.531 0.389-2.254 1.138v0c-0.045 0.07-0.115 0.157-0.21 0.263v0l-1.328 1.467 3.691 3.34c0.742-0.374 1.469-0.954 2.18-1.741v0z" fill="#000000" data-fill-palette-color="quaternary"></path><path d="M177.593 140.294l-0.827 0.725-5.722 9.353-0.557-0.341-0.251-2.15-9.222-5.642-1.54 1.305-0.483-0.774 5.531-9.039 0.27-1.066 3.628 2.219-0.148 0.651-3.883 0.172-2.544 4.158 4.759 2.912 1.41-2.306-1.244-2.304 0.34-0.556 4.655 2.847-0.078 0.909-2.876-0.42-1.416 2.314 5.012 3.066 2.496-4.08-1.799-3.958 0.53-0.417z" fill="#000000" data-fill-palette-color="quaternary"></path><path d="M183.551 121.553l0.625 0.67-1.179 3.272-7.321 1.48-0.854 0.592-0.472-0.495 0.333-0.921c0.27-0.748 0.287-1.407 0.051-1.977-0.232-0.561-0.686-0.963-1.364-1.208v0c-0.889-0.321-1.705-0.344-2.448-0.069-0.751 0.279-1.294 0.882-1.628 1.809v0c-0.217 0.601-0.234 1.231-0.052 1.89v0l10.477 3.778 1.246-1.59 0.632 0.651-1.927 5.345-0.614-0.222-0.679-2.055-10.19-3.675-1.207 1.604-0.629-0.661 0.775-2.149c0.374-1.036 0.701-2.053 0.981-3.051v0c0.218-0.745 0.388-1.288 0.511-1.627v0c0.284-0.787 0.689-1.429 1.215-1.925 0.528-0.503 1.119-0.829 1.772-0.977 0.644-0.143 1.28-0.102 1.907 0.124v0c0.556 0.201 1.028 0.566 1.415 1.096 0.381 0.528 0.664 1.146 0.849 1.857 0.179 0.708 0.256 1.415 0.232 2.122v0l0.79-1.017 5.109-1.03z" fill="#000000" data-fill-palette-color="quaternary"></path><path d="M2.234 97.485c0-3.079 2.496-5.574 5.575-5.574 3.079 0 5.574 2.496 5.574 5.574 0 3.079-2.496 5.574-5.574 5.575-3.079 0-5.574-2.496-5.575-5.575z" fill="#000000" data-fill-palette-color="quaternary"></path><path d="M176.992 97.485c0-3.079 2.496-5.574 5.574-5.574 3.079 0 5.574 2.496 5.574 5.574 0 3.079-2.496 5.574-5.574 5.575-3.079 0-5.574-2.496-5.574-5.575z" fill="#000000" data-fill-palette-color="quaternary"></path></g></svg></g><g transform="matrix(1,0,0,1,36.3615505215313,199.21659746202894)"><svg viewBox="0 0 117.6515090173107 7.184399840583707" height="7.184399840583707" width="117.6515090173107"><g transform="matrix(1,0,0,1,0,0)"><svg width="117.6515090173107" viewBox="2.5900001525878906 -37.0099983215332 618.8499755859375 37.78999710083008" height="7.184399840583707" data-palette-color="#ffffff"><path d="M2.59-1.37L2.59-35.84Q2.59-36.11 2.89-36.32 3.2-36.52 3.78-36.63 4.37-36.74 4.96-36.82 5.54-36.89 6.36-36.91 7.18-36.94 7.71-36.94 8.25-36.94 8.95-36.93 9.64-36.91 9.77-36.91L9.77-36.91 12.5-36.91Q13.31-36.91 14.76-36.96 16.21-37.01 16.89-37.01L16.89-37.01Q28.54-37.01 33.54-33.01L33.54-33.01 34.42-32.23Q34.84-31.84 35.35-31.21 35.86-30.59 36.61-29.33 37.35-28.08 37.94-26.61 38.53-25.15 38.94-23 39.36-20.85 39.36-18.55L39.36-18.55Q39.36-14.99 38.38-11.89 37.4-8.79 35.71-6.52 34.01-4.25 31.73-2.6 29.44-0.95 26.78-0.13 24.12 0.68 21.29 0.68L21.29 0.68 20.51 0.68Q19.46 0.68 17.38 0.63 15.31 0.59 14.26 0.59L14.26 0.59Q8.13 0.59 3.17 0.78L3.17 0.78Q2.59-0.39 2.59-1.37L2.59-1.37ZM16.94-7.81L16.94-7.81Q18.41-7.81 19.58-8.14 20.75-8.47 21.56-9.01 22.36-9.55 22.97-10.38 23.58-11.21 23.94-12.08 24.29-12.96 24.5-14.1 24.71-15.23 24.78-16.25 24.85-17.26 24.85-18.51L24.85-18.51 24.85-20.02Q24.85-24.51 23.07-26.65 21.29-28.78 16.85-28.91L16.85-28.91Q16.72-28.64 16.46-28.17 16.19-27.71 16.06-27.44L16.06-27.44 16.06-26.27Q16.06-25.9 16.04-24.37L16.04-24.37Q15.72-8.01 16.94-7.81ZM42.48-0.98L42.48-33.59 47.02-33.59Q49.12-33.59 53.73-33.69 58.35-33.79 60.64-33.79L60.64-33.79Q62.62-33.79 64.34-33.57 66.06-33.35 67.73-32.76 69.41-32.18 70.59-31.27 71.77-30.37 72.51-28.89 73.24-27.42 73.24-25.49L73.24-25.49Q73.24-22.83 71.99-20.95 70.75-19.07 68.16-17.77L68.16-17.77Q69.19-17.33 69.94-16.63 70.7-15.92 71.1-15.41 71.51-14.89 71.88-13.68 72.26-12.48 72.34-12.1 72.41-11.72 72.65-10.23L72.65-10.23Q72.73-9.89 72.75-9.72L72.75-9.72Q72.85-8.74 73.58-6.14 74.31-3.54 74.31-2.15L74.31-2.15Q74.31-1.27 73.78-1.27L73.78-1.27Q72.31-1.27 69.35-1.25 66.38-1.22 64.94-1.22L64.94-1.22Q64.35-1.27 63.18-1.27L63.18-1.27 61.52-1.27Q61.03-1.42 60.57-2.78 60.1-4.15 59.91-5.86L59.91-5.86 59.37-10.21Q59.23-10.74 59.14-10.97 59.06-11.21 58.84-11.54 58.62-11.87 58.24-11.99 57.86-12.11 57.27-12.11L57.27-12.11 56.15-12.11 56.15-2.34Q56.15-2.27 56.15-2.11 56.15-1.95 56.15-1.89 56.15-1.83 56.15-1.71 56.15-1.59 56.13-1.53 56.1-1.46 56.08-1.37 56.05-1.27 56.02-1.23 55.98-1.2 55.92-1.14 55.86-1.07 55.77-1.05 55.69-1.03 55.58-1 55.47-0.98 55.32-0.98L55.32-0.98 42.48-0.98ZM56.3-20.7L56.3-20.7Q56.35-20.65 56.44-20.5 56.54-20.34 56.64-20.24 56.74-20.14 56.83-20.12L56.83-20.12Q57.57-20.12 58.3-20.28 59.03-20.43 59.8-20.8 60.57-21.17 61.04-21.92 61.52-22.68 61.52-23.73L61.52-23.73Q61.52-26.27 56.64-26.27L56.64-26.27Q56.15-26.15 56.15-25.88L56.15-25.88 56.15-24.95Q56.15-24.24 56.22-22.83 56.3-21.41 56.3-20.7ZM76.51-1.81L76.51-31.54Q76.51-33.01 76.63-33.25L76.63-33.25Q76.85-33.59 77.34-33.59L77.34-33.59 77.92-33.59Q78.32-33.59 78.46-33.54L78.46-33.54 79.73-33.54Q82.2-33.54 87.19-33.67 92.18-33.79 94.67-33.79L94.67-33.79 101.17-33.79Q101.8-33.72 101.8-33.15L101.8-33.15 101.8-25Q101.78-24.85 101.72-24.74 101.66-24.63 101.62-24.6 101.58-24.56 101.39-24.43 101.19-24.29 101.12-24.22L101.12-24.22 89.79-24.22 89.79-21.19 90.86-21.19Q92.28-21.19 95.19-21.29 98.09-21.39 99.65-21.39L99.65-21.39Q100.34-21.39 100.58-21.12 100.83-20.85 100.83-20.36L100.83-20.36Q100.83-20.24 100.78-19.95 100.73-19.65 100.73-19.53L100.73-19.53 100.73-18.6Q100.73-18.51 100.75-18.2 100.78-17.9 100.78-17.68L100.78-17.68 100.78-16.99Q100.78-16.46 100.83-15.92 100.87-15.38 100.87-14.99L100.87-14.99 100.87-14.36Q100.75-14.06 100.68-13.96 100.61-13.87 100.43-13.87L100.43-13.87 100.43-13.92Q99.53-13.92 97.32-13.79 95.11-13.67 93.79-13.67L93.79-13.67 89.89-13.67 89.89-10.55Q90.08-10.55 90.47-10.52 90.86-10.5 91.06-10.5L91.06-10.5Q92.16-10.5 94.31-10.57 96.45-10.64 97.41-10.64L97.41-10.64 100.53-10.64Q101.8-10.64 102.14-10.35L102.14-10.35Q102.27-10.21 102.34-10.06L102.34-10.06 102.34-2.25Q102.34-1.73 102.14-1.46 101.95-1.2 101.41-1.17L101.41-1.17 77.24-1.17 76.51-1.81ZM123.92-6.05L116.4-6.05Q116.23-5.49 116.07-4.58 115.91-3.66 115.78-3.14 115.64-2.61 115.32-2.04 115.01-1.46 114.36-1.2 113.71-0.93 112.69-0.93L112.69-0.93 102.14-0.93 102.14-1.76Q103.43-5.64 105.91-13.67 108.39-21.7 109.76-25.83L109.76-25.83 109.76-25.78Q110.59-28.15 112.2-33.2L112.2-33.2Q112.22-33.25 112.27-33.33L112.27-33.33Q112.49-33.69 112.69-33.89L112.69-33.89 125.87-33.79Q129.24-33.79 129.58-33.2L129.58-33.2 129.58-32.57Q129.63-32.35 130.12-31.45L130.12-31.45Q132.49-24.19 133.59-20.9L133.59-20.9 133.59-20.61Q133.68-19.9 134.03-18.99 134.37-18.09 134.84-17.05 135.32-16.02 135.51-15.43L135.51-15.43 136.49-11.91Q137.35-9.08 139.01-4.35L139.01-4.35 139.01-4.39 139.01-3.91Q139.08-3.56 139.37-2.98 139.67-2.39 139.74-2.15L139.74-2.15Q139.74-1.46 139.46-1.27 139.18-1.07 138.37-1.07L138.37-1.07 127.04-1.07Q126.63-1.12 126.51-1.15 126.38-1.17 126.13-1.25 125.87-1.32 125.76-1.44 125.65-1.56 125.63-1.76L125.63-1.76 124.7-5.47Q124.6-5.93 124.5-5.99 124.41-6.05 123.92-6.05L123.92-6.05ZM117.57-14.65L117.57-14.75 117.57-14.65ZM122.94-17.68L122.94-17.68Q122.8-18.36 122.51-19.89 122.23-21.41 121.97-22.55 121.7-23.68 121.38-24.66L121.38-24.66 121.38-25.83Q121.18-26.34 120.7-26.56L120.7-26.56 120.7-26.51Q120.11-26.39 119.52-23.24L119.52-23.24 119.52-22.07Q119.47-21.9 119.3-21.75 119.13-21.61 119.13-21.58L119.13-21.58Q118.33-18.02 117.81-15.82L117.81-15.82Q117.81-15.58 117.69-14.97 117.57-14.36 117.57-14.26L117.57-14.26 123.63-14.26Q123.63-14.89 123.19-16.55L123.19-16.55 123.19-17.09Q123.16-17.16 123.05-17.37 122.94-17.58 122.94-17.68ZM156.63-33.5L159.12-33.5Q159.29-33.54 159.67-33.58 160.05-33.62 160.15-33.64L160.15-33.64 163.05-18.77 166.86-33.69 184.02-33.69Q184.71-33.69 184.71-30.81L184.71-30.81 184.71-2.05Q184.66-1.66 184.49-1.42 184.32-1.17 183.99-1.09 183.66-1 183.47-0.99 183.29-0.98 182.85-0.98L182.85-0.98Q181.31-0.98 178.18-0.93 175.04-0.88 173.48-0.88L173.48-0.88Q172.26-1.64 172.26-6.49L172.26-6.49Q172.26-7.71 172.3-9.68 172.35-11.65 172.35-12.6L172.35-12.6 172.35-14.75Q172.35-14.92 172.33-15.3 172.3-15.67 172.3-15.87L172.3-15.87Q172.3-16.7 172.4-18.55L172.4-18.55 172.4-16.7Q172.06-15.26 171.08-12.3 170.11-9.35 169.77-7.91L169.77-7.91 168.3-1.66Q167.91-0.98 165.86-0.98L165.86-0.98Q164.86-0.98 163.26-1.03 161.66-1.07 160.83-1.07L160.83-1.07Q160.59-1.07 160-1.05 159.41-1.03 159.27-1.03L159.27-1.03Q158.49-1.03 158.14-1.22 157.8-1.42 157.66-2L157.66-2Q155.36-12.18 154.48-16.41L154.48-16.41 153.6-20.61Q153.26-13.5 153.26-5.57L153.26-5.57 153.26-1.27 141.74-1.27Q141.74-1.42 141.81-1.9 141.88-2.39 141.88-2.44L141.88-2.44Q141.69-7.13 141.69-14.01L141.69-14.01Q141.69-16.09 141.66-19.54 141.64-23 141.64-24.32L141.64-24.32 141.64-32.96Q141.64-33.28 141.74-33.44 141.84-33.59 142.23-33.89L142.23-33.89 144.47-33.89Q145.69-33.89 146.23-33.94L146.23-33.94Q148.7-33.94 152.22-33.72 155.75-33.5 156.63-33.5L156.63-33.5ZM172.4-18.75L172.4-18.7 172.4-18.75ZM208.34-24.12L208.34-24.12Q207.68-24.12 207.26-24.32 206.85-24.51 206.6-24.8 206.36-25.1 206.05-25.39 205.75-25.68 205.09-25.88 204.43-26.07 203.41-26.07L203.41-26.07Q203.09-26.07 202.64-26.01 202.18-25.95 201.65-25.68 201.11-25.42 201.11-25L201.11-25Q201.11-24.54 201.56-24.21 202.01-23.88 202.59-23.74 203.16-23.61 203.88-23.43 204.6-23.24 204.89-23.1L204.89-23.1 208.48-22.22Q210.07-21.78 211.34-21.29 212.61-20.8 214.04-19.96 215.47-19.12 216.42-18.09 217.37-17.07 218.01-15.52 218.64-13.96 218.64-12.11L218.64-12.11Q218.64-9.86 218.05-8.11L218.05-8.11 218.05-8.15Q217.54-6.59 216.61-5.36 215.69-4.13 214.42-3.31 213.15-2.49 211.85-1.94 210.56-1.39 208.86-1.06 207.17-0.73 205.83-0.57 204.5-0.42 202.77-0.29L202.77-0.29Q195.08-0.68 192.47-2.73L192.47-2.73 192.47-3.03Q190.25-4.69 189.18-6.64 188.12-8.59 187.93-11.04L187.93-11.04Q187.93-11.62 188.46-11.62L188.46-11.62Q188.61-11.62 188.9-11.6 189.2-11.57 189.34-11.57L189.34-11.57 191.83-11.57Q192.18-11.62 192.81-11.62L192.81-11.62 193.44-11.62Q193.64-11.62 193.79-11.57L193.79-11.57Q195.2-11.62 198.62-11.62L198.62-11.62 199.74-11.62Q200.23-11.62 200.5-11.33 200.77-11.04 200.93-10.61 201.09-10.18 201.29-9.75 201.5-9.33 202.04-9.03 202.58-8.74 203.45-8.74L203.45-8.74Q204.41-8.74 205.18-9.24 205.94-9.74 205.94-10.69L205.94-10.69Q205.94-11.13 205.53-11.52 205.11-11.91 204.28-12.23 203.45-12.55 202.81-12.74 202.16-12.94 201.06-13.21 199.96-13.48 199.65-13.57L199.65-13.57 198.18-13.57Q192.88-15.14 190.55-17.54 188.22-19.95 188.22-23.63L188.22-23.63Q188.22-26.07 189.14-28.03 190.05-29.98 191.55-31.23 193.05-32.47 195.08-33.31 197.11-34.16 199.21-34.51 201.31-34.86 203.55-34.86L203.55-34.86Q207.53-34.86 210.94-33.53 214.34-32.2 216.1-30.08L216.1-30.08Q216.74-29.44 217.13-28.47 217.52-27.49 217.63-26.92 217.74-26.34 217.91-25L217.91-25 217.22-24.02 213.07-24.02Q212.39-24.02 210.8-24.07 209.22-24.12 208.34-24.12ZM249.49-0.93L236.12-0.93 236.12-33.01Q236.14-33.2 236.51-33.36 236.87-33.52 236.95-33.59L236.95-33.59 250.08-33.59 250.08-1.81Q249.96-1.29 249.85-1.11 249.74-0.93 249.49-0.93L249.49-0.93ZM278.74-33.59L287.09-33.59Q287.38-33.5 287.54-32.75 287.7-32.01 287.72-30.88 287.75-29.76 287.72-28.74 287.7-27.71 287.66-26.64 287.63-25.56 287.63-25.29L287.63-25.29Q287.58-24.32 287.58-22.56L287.58-22.56 287.58-19.97Q287.58-18.26 287.63-15.28 287.68-12.3 287.68-10.89L287.68-10.89 287.68-2Q287.58-1.17 286.31-1.17L286.31-1.17 272.64-1.17Q272.2-1.27 271.51-3.22L271.51-3.22Q271.05-4.52 269.96-7.47 268.88-10.42 268.1-12.66 267.31-14.89 266.68-16.99L266.68-16.99 266.68-17.14 266.68-16.99Q266.61-15.38 266.53-12.19 266.46-9.01 266.39-7.42L266.39-7.42 266.39-2.44Q266.39-1.71 266.22-1.43 266.04-1.15 265.31-0.98L265.31-0.98 255.25-0.98 254.18-2.05Q254.3-6.1 254.37-14.75 254.45-23.39 254.57-27.54L254.57-27.54 254.57-32.81Q254.81-33.69 255.16-33.69L255.16-33.69 255.16-33.59Q256.82-33.59 260.37-33.69 263.92-33.79 265.7-33.79L265.7-33.79 269.8-33.79Q269.83-33.79 269.88-33.76L269.88-33.76Q270.32-33.59 270.37-33.37L270.37-33.37 270.39-33.2Q271.27-30.83 272.17-28.3 273.08-25.76 274.32-22.16 275.57-18.55 276.05-17.19L276.05-17.19 276.05-20.8Q276.54-29.39 276.54-33.01L276.54-33.01Q276.54-33.4 277.08-33.5 277.62-33.59 278.74-33.59L278.74-33.59ZM308.13-0.98L307.49-2.05 307.49-33.01Q307.49-33.4 307.74-33.58 307.98-33.76 308.19-33.78 308.4-33.79 308.96-33.79L308.96-33.79 332.01-33.79Q332.2-33.79 332.32-33.73 332.45-33.67 332.52-33.61 332.59-33.54 332.62-33.41 332.64-33.28 332.65-33.2 332.67-33.13 332.65-32.98 332.64-32.84 332.64-32.81L332.64-32.81 332.64-24.51 321.22-24.51 321.22-23.63Q321.22-23.34 321.31-22.07L321.31-22.07 323.61-22.07Q323.95-22.09 324.84-22.23 325.73-22.36 326.24-22.36L326.24-22.36 328.25-22.36Q328.93-22.36 329.27-22.41L329.27-22.41Q330.27-22.41 331.1-22.17 331.93-21.92 332.01-21.63L332.01-21.63 332.01-20.21Q332.01-19.75 331.96-18.79 331.91-17.82 331.91-17.33L331.91-17.33 331.91-15.14Q331.96-14.94 331.96-14.45L331.96-14.45 331.96-13.48Q331.86-12.7 330.44-12.7L330.44-12.7 328.88-12.7Q328.05-12.7 326.5-12.65 324.95-12.6 324.1-12.6L324.1-12.6 321.36-12.6 321.36-0.98 308.13-0.98ZM334.88-1.81L334.88-31.54Q334.88-33.01 335.01-33.25L335.01-33.25Q335.23-33.59 335.71-33.59L335.71-33.59 336.3-33.59Q336.69-33.59 336.84-33.54L336.84-33.54 338.11-33.54Q340.57-33.54 345.57-33.67 350.56-33.79 353.05-33.79L353.05-33.79 359.54-33.79Q360.18-33.72 360.18-33.15L360.18-33.15 360.18-25Q360.15-24.85 360.09-24.74 360.03-24.63 359.99-24.6 359.96-24.56 359.76-24.43 359.57-24.29 359.49-24.22L359.49-24.22 348.17-24.22 348.17-21.19 349.24-21.19Q350.66-21.19 353.56-21.29 356.47-21.39 358.03-21.39L358.03-21.39Q358.71-21.39 358.96-21.12 359.2-20.85 359.2-20.36L359.2-20.36Q359.2-20.24 359.15-19.95 359.1-19.65 359.1-19.53L359.1-19.53 359.1-18.6Q359.1-18.51 359.13-18.2 359.15-17.9 359.15-17.68L359.15-17.68 359.15-16.99Q359.15-16.46 359.2-15.92 359.25-15.38 359.25-14.99L359.25-14.99 359.25-14.36Q359.13-14.06 359.05-13.96 358.98-13.87 358.81-13.87L358.81-13.87 358.81-13.92Q357.91-13.92 355.7-13.79 353.49-13.67 352.17-13.67L352.17-13.67 348.26-13.67 348.26-10.55Q348.46-10.55 348.85-10.52 349.24-10.5 349.44-10.5L349.44-10.5Q350.53-10.5 352.68-10.57 354.83-10.64 355.78-10.64L355.78-10.64 358.91-10.64Q360.18-10.64 360.52-10.35L360.52-10.35Q360.64-10.21 360.71-10.06L360.71-10.06 360.71-2.25Q360.71-1.73 360.52-1.46 360.32-1.2 359.79-1.17L359.79-1.17 335.62-1.17 334.88-1.81ZM373.19-32.71L374.97-17.21Q375.41-18.99 375.79-21.24 376.17-23.49 376.41-25.24 376.65-27 376.98-29.55 377.31-32.1 377.53-33.59L377.53-33.59 391.6-33.59Q391.67-33.01 391.75-32.34 391.84-31.67 391.91-31.05 391.99-30.44 392.07-29.76 392.16-29.08 392.23-28.45 392.3-27.83 392.38-27.15 392.45-26.46 392.54-25.85 392.62-25.24 392.71-24.58 392.79-23.93 392.87-23.34L392.87-23.34 393.92-16.43 395.89-33.23Q395.94-33.37 396.08-33.47 396.21-33.57 396.45-33.63 396.7-33.69 396.92-33.73 397.14-33.76 397.52-33.78 397.89-33.79 398.11-33.79 398.33-33.79 398.75-33.79 399.16-33.79 399.31-33.79L399.31-33.79Q400.09-33.79 401.56-33.74 403.02-33.69 403.8-33.69L403.8-33.69Q403.9-33.69 404.32-33.72 404.73-33.74 404.97-33.74L404.97-33.74Q405.9-33.74 406.05-33.59L406.05-33.59Q406.17-33.59 406.48-33.62 406.78-33.64 406.93-33.64L406.93-33.64Q407.15-33.64 407.31-33.62 407.47-33.59 407.64-33.51 407.81-33.42 407.94-33.3 408.08-33.18 408.19-32.96 408.3-32.74 408.34-32.42L408.34-32.42 401.24-1.27 386.96-1.27 384.25-16.94 382.56-4Q382.54-3.86 382.43-3.2 382.32-2.54 382.26-2.29 382.2-2.05 382.05-1.64 381.9-1.22 381.68-1.05 381.46-0.88 381.15-0.88L381.15-0.88Q380.24-0.88 378.46-0.95 376.68-1.03 375.78-1.03L375.78-1.03Q374.21-1.03 371.67-0.95 369.14-0.88 367.96-0.88L367.96-0.88 367.18-0.88 360.69-31.23 360.83-32.96Q360.83-33.01 360.83-33.15 360.83-33.3 360.83-33.34 360.83-33.37 360.86-33.48 360.88-33.59 360.93-33.64 360.98-33.69 361.08-33.76 361.18-33.84 361.32-33.89L361.32-33.89Q362.01-33.79 362.35-33.79L362.35-33.79 363.96-33.79Q364.45-33.79 364.45-33.89L364.45-33.89 365.28-33.89Q365.38-33.89 365.63-33.91 365.89-33.94 366.11-33.94L366.11-33.94 366.79-33.94Q367.06-33.94 367.57-33.96 368.09-33.98 368.35-33.98L368.35-33.98 369.97-33.98 369.97-33.89 371.58-33.89Q372.36-33.89 372.76-33.65 373.16-33.42 373.19-32.71L373.19-32.71ZM450.75-18.26L450.75-18.26Q451.99-18.26 453.04-17.48 454.09-16.7 454.73-15.52 455.36-14.33 455.71-13.05 456.07-11.77 456.07-10.64L456.07-10.64Q455.97-7.67 454.37-5.46 452.77-3.25 450.11-2.29L450.11-2.29 448.06-1.07 425.01-1.07 425.01-33.89 443.57-33.89Q449.09-33.89 452.31-31.54L452.31-31.54Q453.72-30.62 454.46-28.86 455.19-27.1 455.19-25.15L455.19-25.15Q455.19-22.66 454.1-21.14 453.02-19.63 450.75-18.26ZM438.1-15.14L438.1-15.14 437.12-9.06Q437.12-8.96 437.47-8.83 437.81-8.69 438.05-8.64L438.05-8.64 439.96-8.64Q441.54-8.76 442.51-9.44 443.47-10.11 443.47-11.67L443.47-11.67Q443.47-12.23 443.35-12.7 443.23-13.16 443.04-13.5 442.86-13.84 442.54-14.11 442.23-14.38 441.94-14.55 441.66-14.72 441.2-14.83 440.74-14.94 440.43-15 440.13-15.06 439.63-15.1 439.13-15.14 438.86-15.14 438.59-15.14 438.1-15.14ZM437.61-25.88L437.61-25.88Q437.81-24.78 437.81-23.34L437.81-23.34 437.81-22.85Q437.81-22.78 437.78-22.61 437.76-22.44 437.76-22.36L437.76-22.36Q437.76-22.27 437.78-21.94 437.81-21.61 437.81-21.39L437.81-21.39 437.81-20.61Q437.81-20.34 438-20.26L438-20.26Q438.64-20.26 439-20.29 439.37-20.31 440.07-20.39 440.76-20.46 441.2-20.68 441.64-20.9 442.1-21.25 442.57-21.61 442.8-22.22 443.03-22.83 443.03-23.63L443.03-23.63Q443.03-24.73 442.3-25.42 441.57-26.1 440.64-26.31 439.71-26.51 438.54-26.51L438.54-26.51Q438.44-26.46 438-26.46L438-26.46 438-26.51Q437.61-26.37 437.61-25.88ZM482.24-0.98L459.83-0.98Q459.75-1.07 459.59-1.2 459.44-1.32 459.24-1.66L459.24-1.66 459.24-12.21Q459.24-14.28 459.41-18.58 459.58-22.88 459.58-25.1L459.58-25.1Q459.58-25.59 459.48-27.17 459.39-28.76 459.39-29.69L459.39-29.69Q459.39-33.13 460.22-33.89L460.22-33.89Q465.29-33.79 467.78-33.79L467.78-33.79 470.13-33.79Q470.96-33.79 471.4-33.74L471.4-33.74Q471.45-33.79 471.64-33.79L471.64-33.79Q471.69-33.79 472.07-33.74 472.45-33.69 472.67-33.69L472.67-33.69Q473.28-33.62 473.69-32.67L473.69-32.67 473.69-32.32Q473.69-32.06 473.67-31.54 473.64-31.03 473.64-30.76L473.64-30.76 473.64-29.69Q473.62-29.57 473.34-29.26 473.06-28.96 473.06-28.76L473.06-28.76 473.06-10.94 483.41-10.94Q483.8-10.94 484-10.91 484.19-10.89 484.39-10.69 484.58-10.5 484.58-10.11L484.58-10.11 484.58-1.95Q484.39-0.98 482.24-0.98L482.24-0.98ZM485.21-16.21L485.21-17.68 485.17-18.21Q485.63-22.19 486.04-23.75L486.04-23.75Q487-27.42 489.46-29.88L489.46-29.88 490.05-30.47Q491.22-31.84 493.61-32.81L493.61-32.81 494.54-32.81Q496.93-33.81 502.4-34.67L502.4-34.67Q503.77-34.67 505.27-34.46 506.77-34.25 508.6-33.78 510.43-33.3 512.13-32.26 513.83-31.23 514.95-29.79L514.95-29.79 514.95-29.1Q518.95-24.1 518.95-17.87L518.95-17.87Q518.95-10.86 515.73-6.45L515.73-6.45 514.75-5.22Q513.63-3.83 511.96-2.83 510.29-1.83 508.41-1.31 506.53-0.78 504.81-0.56 503.09-0.34 501.38-0.34L501.38-0.34Q498.86-0.34 496.58-0.94 494.3-1.54 492.31-2.81 490.32-4.08 488.8-5.93 487.29-7.79 486.35-10.41 485.41-13.04 485.21-16.21L485.21-16.21ZM498.64-18.55L498.64-17.48Q498.64-8.89 501.91-8.89L501.91-8.89Q502.82-8.89 503.49-9.23 504.16-9.57 504.57-10.28 504.99-10.99 505.26-11.72 505.53-12.45 505.64-13.55 505.75-14.65 505.78-15.48 505.82-16.31 505.82-17.48L505.82-17.48 505.82-18.36Q505.82-19.63 505.67-20.8 505.53-21.97 505.17-23.16 504.82-24.34 504.09-25.06 503.35-25.78 502.3-25.78L502.3-25.78Q498.64-25.78 498.64-18.55L498.64-18.55ZM537.99-0.2L537.99-0.2Q533.92-0.2 530.67-1.57 527.42-2.95 525.35-5.4 523.27-7.84 522.19-11.1 521.1-14.36 521.1-18.21L521.1-18.21 521.1-18.55Q521.12-18.73 521.19-19.4 521.25-20.07 521.26-20.28 521.27-20.48 521.34-21.07 521.42-21.66 521.47-21.92 521.52-22.19 521.6-22.71 521.69-23.22 521.8-23.55 521.91-23.88 522.05-24.34 522.2-24.8 522.37-25.22 522.54-25.63 522.76-26.07L522.76-26.07 522.76-26.03Q523.88-28.37 525.59-30.08 527.3-31.79 529.35-32.73 531.4-33.67 533.55-34.09 535.7-34.52 538.09-34.52L538.09-34.52Q541.12-34.52 543.56-33.92 546-33.33 547.61-32.32 549.23-31.32 550.37-29.9 551.52-28.47 552.11-26.95 552.69-25.44 552.94-23.68L552.94-23.68 552.94-21.58Q552.86-21.24 552.57-21.06 552.28-20.87 551.94-20.84 551.59-20.8 550.98-20.8L550.98-20.8 540.53-20.8 540.53-22.9Q540.41-23.73 539.83-24.41 539.24-25.1 538.39-25.1L538.39-25.1Q537.63-25.1 537.05-24.78 536.48-24.46 536.15-23.94 535.82-23.41 535.61-22.72 535.41-22.02 535.35-21.25 535.28-20.48 535.25-19.69 535.21-18.9 535.26-18.19L535.26-18.19Q535.26-17.7 535.26-17.48L535.26-17.48 535.26-14.75Q535.26-14.14 535.32-13.56 535.38-12.99 535.61-12.08 535.85-11.18 536.43-10.62 537.02-10.06 537.9-10.06L537.9-10.06Q538.82-10.06 539.28-10.84 539.73-11.62 540.03-12.72 540.34-13.82 540.73-14.21L540.73-14.21Q541.71-14.21 543.66-14.18 545.61-14.16 546.59-14.16L546.59-14.16Q547.27-14.16 548.61-14.18 549.96-14.21 550.64-14.21L550.64-14.21 552.45-14.21Q553.25-14.21 553.33-13.23L553.33-13.23 553.33-12.3Q552.79-7.45 549.74-4.47 546.69-1.49 542.1-0.68L542.1-0.68 542.1-0.54Q540.46-0.2 537.99-0.2ZM567.19-0.88L556.89-0.88Q556.45-1.61 556.3-1.9L556.3-1.9 556.3-33.98 567.09-33.98Q567.17-33.98 567.48-34 567.8-34.01 567.97-34 568.14-33.98 568.45-33.96 568.75-33.94 568.95-33.87 569.14-33.81 569.35-33.7 569.56-33.59 569.69-33.4 569.83-33.2 569.88-32.96L569.88-32.96 569.88-22.12Q570.68-23.73 572.14-26.76 573.59-29.79 574.27-31.15L574.27-31.15 575.47-33.72 577.79-33.79Q578.28-33.79 579.26-33.74 580.25-33.69 580.72-33.69L580.72-33.69 582.57-33.69Q582.77-33.69 583.15-33.72 583.52-33.74 583.7-33.74L583.7-33.74 585.11-33.74Q585.21-33.74 585.45-33.79L585.45-33.79Q589.41-33.79 589.41-33.2L589.41-33.2Q589.41-32.86 588.97-32.28L588.97-32.28Q587.85-30.49 585.18-25.77 582.52-21.04 580.89-18.65L580.89-18.65 590.43-2.2Q590.43-2.17 590.43-2.03 590.43-1.88 590.43-1.83 590.43-1.78 590.42-1.67 590.41-1.56 590.38-1.5 590.36-1.44 590.32-1.35 590.29-1.27 590.23-1.21 590.16-1.15 590.09-1.07L590.09-1.07Q587.8-1.22 583.26-1.22L583.26-1.22Q582.65-1.22 581.38-1.2 580.11-1.17 579.5-1.17L579.5-1.17 576.18-1.17 576.18-1.86Q575.79-2.51 574.49-4.44 573.2-6.37 572.61-7.47L572.61-7.47 569.88-12.7 569.88-1.86Q569.54-0.88 567.19-0.88L567.19-0.88ZM611.13-24.12L611.13-24.12Q610.47-24.12 610.06-24.32 609.64-24.51 609.4-24.8 609.16-25.1 608.85-25.39 608.55-25.68 607.89-25.88 607.23-26.07 606.2-26.07L606.2-26.07Q605.89-26.07 605.43-26.01 604.98-25.95 604.44-25.68 603.91-25.42 603.91-25L603.91-25Q603.91-24.54 604.36-24.21 604.81-23.88 605.38-23.74 605.96-23.61 606.68-23.43 607.4-23.24 607.69-23.1L607.69-23.1 611.28-22.22Q612.87-21.78 614.14-21.29 615.41-20.8 616.83-19.96 618.26-19.12 619.22-18.09 620.17-17.07 620.8-15.52 621.44-13.96 621.44-12.11L621.44-12.11Q621.44-9.86 620.85-8.11L620.85-8.11 620.85-8.15Q620.34-6.59 619.41-5.36 618.48-4.13 617.21-3.31 615.94-2.49 614.65-1.94 613.36-1.39 611.66-1.06 609.96-0.73 608.63-0.57 607.3-0.42 605.57-0.29L605.57-0.29Q597.88-0.68 595.26-2.73L595.26-2.73 595.26-3.03Q593.04-4.69 591.98-6.64 590.92-8.59 590.72-11.04L590.72-11.04Q590.72-11.62 591.26-11.62L591.26-11.62Q591.41-11.62 591.7-11.6 591.99-11.57 592.14-11.57L592.14-11.57 594.63-11.57Q594.97-11.62 595.61-11.62L595.61-11.62 596.24-11.62Q596.44-11.62 596.58-11.57L596.58-11.57Q598-11.62 601.42-11.62L601.42-11.62 602.54-11.62Q603.03-11.62 603.3-11.33 603.57-11.04 603.72-10.61 603.88-10.18 604.09-9.75 604.3-9.33 604.84-9.03 605.37-8.74 606.25-8.74L606.25-8.74Q607.2-8.74 607.97-9.24 608.74-9.74 608.74-10.69L608.74-10.69Q608.74-11.13 608.33-11.52 607.91-11.91 607.08-12.23 606.25-12.55 605.6-12.74 604.96-12.94 603.86-13.21 602.76-13.48 602.44-13.57L602.44-13.57 600.98-13.57Q595.68-15.14 593.35-17.54 591.02-19.95 591.02-23.63L591.02-23.63Q591.02-26.07 591.93-28.03 592.85-29.98 594.35-31.23 595.85-32.47 597.88-33.31 599.9-34.16 602-34.51 604.1-34.86 606.35-34.86L606.35-34.86Q610.33-34.86 613.73-33.53 617.14-32.2 618.9-30.08L618.9-30.08Q619.53-29.44 619.92-28.47 620.31-27.49 620.42-26.92 620.53-26.34 620.7-25L620.7-25 620.02-24.02 615.87-24.02Q615.19-24.02 613.6-24.07 612.01-24.12 611.13-24.12Z" opacity="1" transform="matrix(1,0,0,1,0,0)" fill="#000000" class="slogan-text-1" data-fill-palette-color="quaternary" id="text-1"></path></svg></g></svg></g></svg></g></svg></g></svg></g></svg></g></svg></g><defs></defs></svg><rect width="333.90454557049503" height="333.90454557049503" fill="none" stroke="none" visibility="hidden"></rect></g></svg></g></svg>